<svg width="31" height="26" viewBox="0 0 31 26" fill="none" xmlns="http://www.w3.org/2000/svg">
<path d="M3.86378 11.9914H15.3478V14.0086H3.86378V11.9914ZM7.62023 23.9828C6.54696 23.9828 5.68834 23.0862 5.68834 21.9655H3.86378C3.86378 24.2069 5.58101 26 7.72755 26C9.8741 26 11.5913 24.2069 11.5913 21.9655H9.55212C9.55212 23.0862 8.6935 23.9828 7.62023 23.9828ZM25.8658 23.9828C24.7926 23.9828 23.934 23.0862 23.934 21.9655H22.0021C22.0021 24.2069 23.7193 26 25.8658 26C28.0124 26 29.7296 24.2069 29.7296 21.9655H27.7977C27.7977 23.0862 26.9391 23.9828 25.8658 23.9828ZM0 0H19.1042V19.9483H0V0ZM1.93189 18.0431H17.2797V2.01724H1.93189V18.0431ZM27.3684 4.03448H21.0361V14.0086H26.8318V11.9914H22.968V5.93966H26.1878L28.6563 11.2069V17.931H21.0361V19.9483H30.5882V10.7586L27.3684 4.03448Z" fill="#7115F2"/>
</svg>
