<svg width="24" height="29" viewBox="0 0 24 29" fill="none" xmlns="http://www.w3.org/2000/svg">
<path d="M11.4017 16.2807C15.7641 16.2807 19.3333 12.6175 19.3333 8.14035C19.3333 3.66316 15.7641 0 11.4017 0C7.03932 0 3.47009 3.66316 3.47009 8.14035C3.47009 12.6175 7.03932 16.2807 11.4017 16.2807ZM11.4017 1.83158C14.7727 1.83158 17.5487 4.6807 17.5487 8.14035C17.5487 11.6 14.7727 14.4491 11.4017 14.4491C8.03077 14.4491 5.2547 11.6 5.2547 8.14035C5.2547 4.6807 8.03077 1.83158 11.4017 1.83158ZM23.2 29H0L1.0906 19.3333L5.94872 17.2982L6.64274 19.0281L2.67692 20.6561L1.98291 27.1684H21.2171L20.5231 20.5544L16.5573 18.9263L17.2513 17.1965L22.2085 19.2316L23.2 29Z" fill="#7115F2"/>
</svg>
