<svg width="28" height="28" viewBox="0 0 28 28" fill="none" xmlns="http://www.w3.org/2000/svg">
<path d="M15.731 0.189697C13.7087 0.190663 11.7195 0.703413 9.94866 1.68019C8.17785 2.65697 6.68304 4.06601 5.60344 5.77608V3.41211C5.60344 3.29002 5.55494 3.17293 5.46861 3.0866C5.38228 3.00026 5.26519 2.95176 5.1431 2.95176V0.650041C5.1431 0.527951 5.0946 0.410861 5.00827 0.32453C4.92193 0.238199 4.80484 0.189698 4.68275 0.189697H1.92069C1.7986 0.189699 1.68151 0.238199 1.59518 0.32453C1.50885 0.410861 1.46035 0.527951 1.46034 0.650041V2.95176C1.33825 2.95176 1.22116 3.00026 1.13483 3.0866C1.0485 3.17293 1 3.29002 1 3.41211V8.01555C1 8.13764 1.0485 8.25473 1.13483 8.34106C1.22116 8.42739 1.33825 8.47589 1.46034 8.47589H1.92069V10.7776H1.46034C1.33825 10.7776 1.22116 10.8261 1.13483 10.9124C1.0485 10.9988 1 11.1159 1 11.238V13.0793C1 13.2014 1.0485 13.3185 1.13483 13.4048C1.22116 13.4912 1.33825 13.5397 1.46034 13.5397H1.92069V14.9207C1.92069 17.47 2.67665 19.9621 4.09299 22.0818C5.50932 24.2015 7.52241 25.8536 9.87768 26.8292C12.233 27.8048 14.8246 28.06 17.325 27.5627C19.8253 27.0653 22.122 25.8377 23.9247 24.035C25.1254 22.8409 26.0772 21.4205 26.7253 19.856C27.3733 18.2916 27.7046 16.6141 27.7 14.9207V12.1586C27.7 5.55896 22.3307 0.189697 15.731 0.189697ZM4.67966 7.5552H1.92069V3.87245H4.68275V7.54775L4.67966 7.5552ZM2.38103 1.11039H4.22241V2.95176H2.38103V1.11039ZM2.84138 8.47589H3.76207V10.7776H2.84138V8.47589ZM1.92069 11.6983H6.52413V12.619H1.92069V11.6983ZM4.68275 13.5397H5.60344V14.9207C5.60344 19.9974 9.73364 24.1276 14.8103 24.1276C19.887 24.1276 24.0172 19.9974 24.0172 14.9207V12.619C24.0163 11.7647 23.6764 10.9456 23.0723 10.3415C22.4682 9.73736 21.6491 9.39754 20.7948 9.39658H19.4138V8.47589H20.7948C21.8932 8.47713 22.9463 8.91403 23.7231 9.69075C24.4998 10.4675 24.9367 11.5206 24.9379 12.619V14.9207C24.9379 20.5051 20.3947 25.0483 14.8103 25.0483C9.22596 25.0483 4.68275 20.5051 4.68275 14.9207V13.5397ZM20.7948 7.5552H19.4138V7.09486C19.4138 6.97277 19.3653 6.85568 19.2789 6.76935C19.1926 6.68302 19.0755 6.63452 18.9534 6.63452H14.35C14.2279 6.63452 14.1108 6.68302 14.0245 6.76935C13.9381 6.85568 13.8896 6.97277 13.8896 7.09486H11.5879C11.4658 7.09486 11.3487 7.14336 11.2624 7.22969C11.1761 7.31602 11.1276 7.43311 11.1276 7.5552V10.3173C11.1276 10.4394 11.1761 10.5564 11.2624 10.6428C11.3487 10.7291 11.4658 10.7776 11.5879 10.7776H13.8896C13.8896 10.8997 13.9381 11.0168 14.0245 11.1031C14.1108 11.1895 14.2279 11.238 14.35 11.238H18.9534C19.0755 11.238 19.1926 11.1895 19.2789 11.1031C19.3653 11.0168 19.4138 10.8997 19.4138 10.7776V10.3173H20.7948C21.405 10.318 21.9901 10.5607 22.4216 10.9922C22.8531 11.4237 23.0958 12.0087 23.0965 12.619V14.9207C23.0965 19.4898 19.3794 23.2069 14.8103 23.2069C10.2413 23.2069 6.52413 19.4898 6.52413 14.9207V13.5397H6.98448C7.10657 13.5397 7.22366 13.4912 7.30999 13.4048C7.39632 13.3185 7.44482 13.2014 7.44482 13.0793V11.238C7.44482 11.1159 7.39632 10.9988 7.30999 10.9124C7.22366 10.8261 7.10657 10.7776 6.98448 10.7776H6.62757C6.95823 8.60003 8.05847 6.61309 9.72869 5.17728C11.3989 3.74146 13.5285 2.95187 15.731 2.95176C19.7255 2.95176 23.1334 5.50899 24.4051 9.0721C23.9347 8.59155 23.373 8.20982 22.753 7.94934C22.133 7.68885 21.4673 7.55485 20.7948 7.5552ZM13.8896 9.85693H12.0483V8.01555H13.8896V9.85693ZM14.8103 7.5552H18.4931V10.3173H14.8103V7.5552ZM26.7793 14.9207C26.7793 21.5204 21.41 26.8897 14.8103 26.8897C8.21064 26.8897 2.84138 21.5204 2.84138 14.9207V13.5397H3.76207V14.9207C3.76207 21.0127 8.7183 25.969 14.8103 25.969C20.9024 25.969 25.8586 21.0127 25.8586 14.9207V12.1586C25.8586 6.57428 21.3154 2.03107 15.731 2.03107C13.2842 2.03118 10.9201 2.91699 9.07574 4.52479C7.23134 6.13259 6.03128 8.3537 5.69735 10.7776H4.76841C5.10518 8.10771 6.40468 5.65246 8.42306 3.87258C10.4414 2.0927 13.04 1.11054 15.731 1.11039C21.823 1.11039 26.7793 6.06662 26.7793 12.1586V14.9207Z" fill="#7115F2" stroke="#7115F2" stroke-width="0.25"/>
</svg>
