<svg width="31" height="31" viewBox="0 0 31 31" fill="none" xmlns="http://www.w3.org/2000/svg">
<path d="M21.219 9.90998C21.1139 9.91003 21.0131 9.95183 20.9388 10.0262L14.0351 16.9299L10.0621 12.9566C9.98639 12.885 9.88613 12.8451 9.78191 12.8451C9.67768 12.8451 9.57742 12.885 9.50171 12.9566L7.90004 14.5585C7.82576 14.6328 7.78403 14.7336 7.78403 14.8387C7.78403 14.9438 7.82576 15.0446 7.90004 15.1189L13.7556 20.9741C13.7924 21.0109 13.8361 21.0401 13.8842 21.0601C13.9322 21.08 13.9838 21.0903 14.0358 21.0903C14.0879 21.0903 14.1394 21.08 14.1875 21.0601C14.2356 21.0401 14.2792 21.0109 14.316 20.9741L23.1009 12.1885C23.1752 12.1141 23.2169 12.0133 23.2169 11.9082C23.2169 11.8031 23.1752 11.7022 23.1009 11.6279L21.4992 10.0262C21.4249 9.95183 21.3241 9.91003 21.219 9.90998ZM14.0351 20.1333L8.74085 14.8387L9.78281 13.7967L13.7556 17.7705C13.7924 17.8073 13.8361 17.8365 13.8842 17.8565C13.9322 17.8764 13.9838 17.8867 14.0358 17.8867C14.0879 17.8867 14.1394 17.8764 14.1875 17.8565C14.2356 17.8365 14.2792 17.8073 14.316 17.7705L21.219 10.867L22.261 11.909L14.0351 20.1333Z" fill="#7115F2"/>
<path d="M15.4998 4.70264C13.3642 4.70264 11.2767 5.3359 9.50105 6.52234C7.72542 7.70879 6.34149 9.39512 5.52426 11.3681C4.70703 13.3411 4.4932 15.5121 4.90982 17.6066C5.32644 19.7011 6.3548 21.6251 7.86484 23.1351C9.37489 24.6452 11.2988 25.6735 13.3933 26.0902C15.4878 26.5068 17.6588 26.2929 19.6318 25.4757C21.6047 24.6585 23.2911 23.2745 24.4775 21.4989C25.6639 19.7233 26.2972 17.6357 26.2972 15.5001C26.294 12.6375 25.1553 9.89295 23.1311 7.86872C21.1069 5.8445 18.3624 4.70587 15.4998 4.70264ZM15.4998 25.5048C13.521 25.5048 11.5868 24.9181 9.9415 23.8187C8.29625 22.7194 7.01393 21.1569 6.25671 19.3288C5.49948 17.5006 5.30135 15.489 5.68739 13.5483C6.07342 11.6076 7.02626 9.82493 8.42544 8.42574C9.82461 7.02656 11.6073 6.07371 13.548 5.68767C15.4887 5.30164 17.5003 5.49977 19.3284 6.257C21.1565 7.01423 22.719 8.29656 23.8183 9.94182C24.9176 11.5871 25.5044 13.5214 25.5044 15.5001C25.5014 18.1526 24.4464 20.6956 22.5708 22.5712C20.6952 24.4468 18.1522 25.5018 15.4998 25.5048Z" fill="#7115F2"/>
<path d="M29.5501 16.7716C29.8412 16.4117 30 15.9629 30 15.5001C30 15.0373 29.8412 14.5885 29.5501 14.2287L28.9005 13.4178C28.776 13.2622 28.6907 13.0788 28.652 12.8833C28.6132 12.6878 28.6221 12.4859 28.6778 12.2945L28.9678 11.2999C29.0951 10.8551 29.068 10.3804 28.8909 9.95299C28.7137 9.52563 28.397 9.17088 27.9924 8.94661L27.0848 8.44828C26.9099 8.35253 26.7607 8.21609 26.6497 8.0505C26.5388 7.88491 26.4693 7.69503 26.4471 7.49692L26.3339 6.46515C26.2854 6.00466 26.0803 5.57476 25.7529 5.24735C25.4255 4.91994 24.9956 4.71485 24.5352 4.66639L23.5034 4.55314C23.3053 4.5311 23.1154 4.46167 22.9498 4.35072C22.7842 4.23977 22.6478 4.09056 22.552 3.91572L22.0537 3.00785C21.8329 2.59992 21.4785 2.28035 21.05 2.10275C20.6214 1.92516 20.1449 1.90035 19.7002 2.03248L18.7058 2.3222C18.5144 2.37783 18.3124 2.38662 18.1168 2.34783C17.9212 2.30904 17.7378 2.2238 17.5821 2.0993L16.7712 1.44966C16.4113 1.15872 15.9625 1 15.4998 1C15.037 1 14.5882 1.15872 14.2284 1.44966L13.4174 2.0993C13.2617 2.22354 13.0784 2.3086 12.8829 2.34735C12.6874 2.38609 12.4856 2.37739 12.2942 2.32197L11.2995 2.03203C10.8548 1.90462 10.38 1.93169 9.95262 2.10883C9.52524 2.28597 9.17051 2.60272 8.9463 3.0074L8.44797 3.91505C8.35222 4.08989 8.21579 4.23911 8.0502 4.35009C7.88461 4.46108 7.69473 4.53057 7.49662 4.55268L6.46485 4.66594C6.00437 4.7144 5.57447 4.91949 5.24706 5.2469C4.91965 5.57431 4.71457 6.0042 4.66611 6.46469L4.55285 7.49647C4.53082 7.69457 4.46139 7.88446 4.35044 8.05006C4.23949 8.21566 4.09028 8.35209 3.91545 8.44783L3.00758 8.94616C2.59974 9.16708 2.28025 9.52149 2.10267 9.94998C1.92509 10.3785 1.90021 10.855 2.03222 11.2996L2.32238 12.2938C2.37802 12.4853 2.38681 12.6873 2.34802 12.8829C2.30923 13.0784 2.22399 13.2618 2.09949 13.4176L1.44985 14.2285C1.15879 14.5883 1 15.0371 1 15.4999C1 15.9627 1.15879 16.4115 1.44985 16.7713L2.09949 17.5823C2.22402 17.7379 2.30925 17.9212 2.34801 18.1167C2.38676 18.3122 2.3779 18.5142 2.32215 18.7055L2.03222 19.7002C1.9048 20.1449 1.93181 20.6197 2.10886 21.0471C2.28591 21.4745 2.60255 21.8293 3.00713 22.0536L3.91477 22.552C4.08961 22.6477 4.23883 22.7842 4.34981 22.9498C4.4608 23.1153 4.53028 23.3052 4.5524 23.5033L4.66566 24.5351C4.71412 24.9956 4.9192 25.4255 5.24661 25.7529C5.57402 26.0803 6.00391 26.2854 6.4644 26.3339L7.49616 26.4471C7.69427 26.4692 7.88416 26.5386 8.04975 26.6495C8.21535 26.7605 8.35179 26.9097 8.44752 27.0845L8.94585 27.9924C9.16667 28.4003 9.52107 28.7199 9.94959 28.8975C10.3781 29.0751 10.8547 29.0999 11.2993 28.9678L12.2935 28.6776C12.485 28.6221 12.6869 28.6134 12.8825 28.6522C13.078 28.691 13.2614 28.7762 13.4172 28.9005L14.2281 29.5501C14.588 29.8412 15.0367 30 15.4995 30C15.9624 30 16.4111 29.8412 16.771 29.5501L17.5819 28.9005C17.7375 28.776 17.9208 28.6908 18.1163 28.6521C18.3118 28.6133 18.5138 28.6222 18.7052 28.6778L19.6998 28.9678C20.1444 29.0998 20.6209 29.0749 21.0493 28.8973C21.4778 28.7197 21.8321 28.4002 22.053 27.9924L22.5513 27.0848C22.6471 26.9099 22.7835 26.7607 22.9491 26.6497C23.1147 26.5387 23.3046 26.4692 23.5027 26.4471L24.5345 26.3339C24.995 26.2854 25.4248 26.0803 25.7523 25.7529C26.0797 25.4255 26.2848 24.9956 26.3332 24.5351L26.4465 23.5033C26.4685 23.3052 26.5379 23.1153 26.6489 22.9497C26.7598 22.7841 26.909 22.6477 27.0839 22.552L27.9917 22.0536C28.3996 21.8327 28.7191 21.4783 28.8967 21.0498C29.0742 20.6213 29.0991 20.1448 28.9671 19.7002L28.6769 18.706C28.6213 18.5145 28.6125 18.3125 28.6513 18.1169C28.6901 17.9214 28.7753 17.738 28.8998 17.5823L29.5501 16.7716ZM28.2817 17.0871C28.0777 17.3422 27.938 17.6427 27.8744 17.9631C27.8109 18.2835 27.8253 18.6145 27.9165 18.9282L28.2069 19.9224C28.2874 20.1937 28.2722 20.4844 28.1638 20.7458C28.0554 21.0073 27.8605 21.2235 27.6117 21.3582L26.7036 21.8566C26.4169 22.0137 26.1723 22.2376 25.9905 22.5093C25.8088 22.781 25.6952 23.0926 25.6593 23.4175L25.5461 24.4493C25.5163 24.7302 25.3911 24.9925 25.1914 25.1922C24.9916 25.392 24.7293 25.5172 24.4484 25.547L23.4164 25.6602C23.0915 25.6962 22.78 25.8098 22.5084 25.9917C22.2367 26.1735 22.0129 26.418 21.8557 26.7047L21.3574 27.6125C21.2225 27.8612 21.0064 28.0561 20.745 28.1645C20.4837 28.2728 20.193 28.2881 19.9218 28.2078L18.9274 27.9177C18.6138 27.8263 18.2828 27.8117 17.9624 27.8752C17.6419 27.9388 17.3415 28.0785 17.0865 28.2826L16.2756 28.9322C16.056 29.1099 15.782 29.2069 15.4995 29.2069C15.2171 29.2069 14.9431 29.1099 14.7235 28.9322L13.9126 28.2826C13.6575 28.0785 13.3571 27.9388 13.0366 27.8753C12.7162 27.8117 12.3852 27.8262 12.0715 27.9174L11.0776 28.2076C10.8062 28.2878 10.5156 28.2725 10.2543 28.1641C9.99289 28.0558 9.77666 27.861 9.6417 27.6123L9.14337 26.7042C8.98625 26.4175 8.76235 26.173 8.49064 25.9912C8.21893 25.8094 7.90741 25.6958 7.58247 25.66L6.5507 25.5467C6.26975 25.517 6.0075 25.3918 5.80773 25.192C5.60796 24.9922 5.48276 24.73 5.45302 24.449L5.33976 23.417C5.30381 23.0921 5.19013 22.7807 5.00832 22.509C4.82652 22.2374 4.58195 22.0135 4.29531 21.8564L3.38744 21.358C3.1406 21.2212 2.94739 21.0048 2.83933 20.7441C2.73126 20.4833 2.71472 20.1937 2.7924 19.9224L3.08256 18.928C3.17387 18.6144 3.18838 18.2834 3.12486 17.963C3.06135 17.6426 2.92168 17.3422 2.71765 17.0871L2.06755 16.2762C1.88992 16.0565 1.79301 15.7826 1.79301 15.5001C1.79301 15.2177 1.88992 14.9437 2.06755 14.7241L2.71719 13.9132C2.92122 13.6581 3.0609 13.3576 3.12445 13.0372C3.188 12.7167 3.17355 12.3857 3.08233 12.0721L2.7924 11.0779C2.7119 10.8066 2.72712 10.5158 2.8355 10.2544C2.94388 9.993 3.13883 9.77678 3.38767 9.64201L4.29576 9.14368C4.58244 8.98656 4.82702 8.76266 5.00879 8.49095C5.19057 8.21923 5.30417 7.90771 5.33999 7.58277L5.45324 6.55099C5.48319 6.26992 5.60869 6.00765 5.80877 5.80798C6.00885 5.60831 6.27138 5.48336 6.55251 5.45398L7.5845 5.34073C7.9094 5.30478 8.22086 5.19109 8.49252 5.00929C8.76418 4.82748 8.98805 4.58291 9.14518 4.29627L9.64351 3.3884C9.78028 3.14187 9.9964 2.94885 10.2567 2.84069C10.5171 2.73254 10.8064 2.71561 11.0776 2.79267L12.072 3.08283C12.3856 3.17418 12.7165 3.18871 13.037 3.12519C13.3574 3.06168 13.6578 2.92199 13.9128 2.71792L14.7237 2.06782C14.9434 1.89014 15.2173 1.79321 15.4998 1.79321C15.7823 1.79321 16.0562 1.89014 16.2758 2.06782L17.0867 2.71746C17.3419 2.92137 17.6423 3.06098 17.9628 3.12452C18.2832 3.18807 18.6141 3.17369 18.9278 3.0826L19.922 2.79267C20.1933 2.71248 20.4839 2.72784 20.7453 2.83619C21.0066 2.94454 21.2229 3.13931 21.3579 3.38795L21.8562 4.29604C22.0133 4.58272 22.2372 4.82731 22.5089 5.00908C22.7806 5.19085 23.0921 5.30446 23.4171 5.34027L24.4489 5.45353C24.7298 5.48327 24.992 5.60848 25.1918 5.80825C25.3916 6.00802 25.5168 6.27027 25.5465 6.55122L25.6598 7.58322C25.6957 7.90812 25.8094 8.21958 25.9912 8.49125C26.173 8.76291 26.4176 8.98678 26.7042 9.14391L27.6121 9.64224C27.859 9.77905 28.0522 9.99546 28.1603 10.2562C28.2684 10.5169 28.285 10.8065 28.2074 11.0779L27.9172 12.0723C27.8259 12.3859 27.8114 12.7169 27.8749 13.0373C27.9384 13.3577 28.0781 13.6581 28.2821 13.9132L28.9318 14.7241C29.1094 14.9437 29.2063 15.2177 29.2063 15.5001C29.2063 15.7826 29.1094 16.0565 28.9318 16.2762L28.2817 17.0871Z" fill="#7115F2"/>
<path d="M21.219 9.90998C21.1139 9.91003 21.0131 9.95183 20.9388 10.0262L14.0351 16.9299L10.0621 12.9566C9.98639 12.885 9.88613 12.8451 9.78191 12.8451C9.67768 12.8451 9.57742 12.885 9.50171 12.9566L7.90004 14.5585C7.82576 14.6328 7.78403 14.7336 7.78403 14.8387C7.78403 14.9438 7.82576 15.0446 7.90004 15.1189L13.7556 20.9741C13.7924 21.0109 13.8361 21.0401 13.8842 21.0601C13.9322 21.08 13.9838 21.0903 14.0358 21.0903C14.0879 21.0903 14.1394 21.08 14.1875 21.0601C14.2356 21.0401 14.2792 21.0109 14.316 20.9741L23.1009 12.1885C23.1752 12.1141 23.2169 12.0133 23.2169 11.9082C23.2169 11.8031 23.1752 11.7022 23.1009 11.6279L21.4992 10.0262C21.4249 9.95183 21.3241 9.91003 21.219 9.90998ZM14.0351 20.1333L8.74085 14.8387L9.78281 13.7967L13.7556 17.7705C13.7924 17.8073 13.8361 17.8365 13.8842 17.8565C13.9322 17.8764 13.9838 17.8867 14.0358 17.8867C14.0879 17.8867 14.1394 17.8764 14.1875 17.8565C14.2356 17.8365 14.2792 17.8073 14.316 17.7705L21.219 10.867L22.261 11.909L14.0351 20.1333Z" stroke="#7115F2"/>
<path d="M15.4998 4.70264C13.3642 4.70264 11.2767 5.3359 9.50105 6.52234C7.72542 7.70879 6.34149 9.39512 5.52426 11.3681C4.70703 13.3411 4.4932 15.5121 4.90982 17.6066C5.32644 19.7011 6.3548 21.6251 7.86484 23.1351C9.37489 24.6452 11.2988 25.6735 13.3933 26.0902C15.4878 26.5068 17.6588 26.2929 19.6318 25.4757C21.6047 24.6585 23.2911 23.2745 24.4775 21.4989C25.6639 19.7233 26.2972 17.6357 26.2972 15.5001C26.294 12.6375 25.1553 9.89295 23.1311 7.86872C21.1069 5.8445 18.3624 4.70587 15.4998 4.70264ZM15.4998 25.5048C13.521 25.5048 11.5868 24.9181 9.9415 23.8187C8.29625 22.7194 7.01393 21.1569 6.25671 19.3288C5.49948 17.5006 5.30135 15.489 5.68739 13.5483C6.07342 11.6076 7.02626 9.82493 8.42544 8.42574C9.82461 7.02656 11.6073 6.07371 13.548 5.68767C15.4887 5.30164 17.5003 5.49977 19.3284 6.257C21.1565 7.01423 22.719 8.29656 23.8183 9.94182C24.9176 11.5871 25.5044 13.5214 25.5044 15.5001C25.5014 18.1526 24.4464 20.6956 22.5708 22.5712C20.6952 24.4468 18.1522 25.5018 15.4998 25.5048Z" stroke="#7115F2"/>
<path d="M29.5501 16.7716C29.8412 16.4117 30 15.9629 30 15.5001C30 15.0373 29.8412 14.5885 29.5501 14.2287L28.9005 13.4178C28.776 13.2622 28.6907 13.0788 28.652 12.8833C28.6132 12.6878 28.6221 12.4859 28.6778 12.2945L28.9678 11.2999C29.0951 10.8551 29.068 10.3804 28.8909 9.95299C28.7137 9.52563 28.397 9.17088 27.9924 8.94661L27.0848 8.44828C26.9099 8.35253 26.7607 8.21609 26.6497 8.0505C26.5388 7.88491 26.4693 7.69503 26.4471 7.49692L26.3339 6.46515C26.2854 6.00466 26.0803 5.57476 25.7529 5.24735C25.4255 4.91994 24.9956 4.71485 24.5352 4.66639L23.5034 4.55314C23.3053 4.5311 23.1154 4.46167 22.9498 4.35072C22.7842 4.23977 22.6478 4.09056 22.552 3.91572L22.0537 3.00785C21.8329 2.59992 21.4785 2.28035 21.05 2.10275C20.6214 1.92516 20.1449 1.90035 19.7002 2.03248L18.7058 2.3222C18.5144 2.37783 18.3124 2.38662 18.1168 2.34783C17.9212 2.30904 17.7378 2.2238 17.5821 2.0993L16.7712 1.44966C16.4113 1.15872 15.9625 1 15.4998 1C15.037 1 14.5882 1.15872 14.2284 1.44966L13.4174 2.0993C13.2617 2.22354 13.0784 2.3086 12.8829 2.34735C12.6874 2.38609 12.4856 2.37739 12.2942 2.32197L11.2995 2.03203C10.8548 1.90462 10.38 1.93169 9.95262 2.10883C9.52524 2.28597 9.17051 2.60272 8.9463 3.0074L8.44797 3.91505C8.35222 4.08989 8.21579 4.23911 8.0502 4.35009C7.88461 4.46108 7.69473 4.53057 7.49662 4.55268L6.46485 4.66594C6.00437 4.7144 5.57447 4.91949 5.24706 5.2469C4.91965 5.57431 4.71457 6.0042 4.66611 6.46469L4.55285 7.49647C4.53082 7.69457 4.46139 7.88446 4.35044 8.05006C4.23949 8.21566 4.09028 8.35209 3.91545 8.44783L3.00758 8.94616C2.59974 9.16708 2.28025 9.52149 2.10267 9.94998C1.92509 10.3785 1.90021 10.855 2.03222 11.2996L2.32238 12.2938C2.37802 12.4853 2.38681 12.6873 2.34802 12.8829C2.30923 13.0784 2.22399 13.2618 2.09949 13.4176L1.44985 14.2285C1.15879 14.5883 1 15.0371 1 15.4999C1 15.9627 1.15879 16.4115 1.44985 16.7713L2.09949 17.5823C2.22402 17.7379 2.30925 17.9212 2.34801 18.1167C2.38676 18.3122 2.3779 18.5142 2.32215 18.7055L2.03222 19.7002C1.9048 20.1449 1.93181 20.6197 2.10886 21.0471C2.28591 21.4745 2.60255 21.8293 3.00713 22.0536L3.91477 22.552C4.08961 22.6477 4.23883 22.7842 4.34981 22.9498C4.4608 23.1153 4.53028 23.3052 4.5524 23.5033L4.66566 24.5351C4.71412 24.9956 4.9192 25.4255 5.24661 25.7529C5.57402 26.0803 6.00391 26.2854 6.4644 26.3339L7.49616 26.4471C7.69427 26.4692 7.88416 26.5386 8.04975 26.6495C8.21535 26.7605 8.35179 26.9097 8.44752 27.0845L8.94585 27.9924C9.16667 28.4003 9.52107 28.7199 9.94959 28.8975C10.3781 29.0751 10.8547 29.0999 11.2993 28.9678L12.2935 28.6776C12.485 28.6221 12.6869 28.6134 12.8825 28.6522C13.078 28.691 13.2614 28.7762 13.4172 28.9005L14.2281 29.5501C14.588 29.8412 15.0367 30 15.4995 30C15.9624 30 16.4111 29.8412 16.771 29.5501L17.5819 28.9005C17.7375 28.776 17.9208 28.6908 18.1163 28.6521C18.3118 28.6133 18.5138 28.6222 18.7052 28.6778L19.6998 28.9678C20.1444 29.0998 20.6209 29.0749 21.0493 28.8973C21.4778 28.7197 21.8321 28.4002 22.053 27.9924L22.5513 27.0848C22.6471 26.9099 22.7835 26.7607 22.9491 26.6497C23.1147 26.5387 23.3046 26.4692 23.5027 26.4471L24.5345 26.3339C24.995 26.2854 25.4248 26.0803 25.7523 25.7529C26.0797 25.4255 26.2848 24.9956 26.3332 24.5351L26.4465 23.5033C26.4685 23.3052 26.5379 23.1153 26.6489 22.9497C26.7598 22.7841 26.909 22.6477 27.0839 22.552L27.9917 22.0536C28.3996 21.8327 28.7191 21.4783 28.8967 21.0498C29.0742 20.6213 29.0991 20.1448 28.9671 19.7002L28.6769 18.706C28.6213 18.5145 28.6125 18.3125 28.6513 18.1169C28.6901 17.9214 28.7753 17.738 28.8998 17.5823L29.5501 16.7716ZM28.2817 17.0871C28.0777 17.3422 27.938 17.6427 27.8744 17.9631C27.8109 18.2835 27.8253 18.6145 27.9165 18.9282L28.2069 19.9224C28.2874 20.1937 28.2722 20.4844 28.1638 20.7458C28.0554 21.0073 27.8605 21.2235 27.6117 21.3582L26.7036 21.8566C26.4169 22.0137 26.1723 22.2376 25.9905 22.5093C25.8088 22.781 25.6952 23.0926 25.6593 23.4175L25.5461 24.4493C25.5163 24.7302 25.3911 24.9925 25.1914 25.1922C24.9916 25.392 24.7293 25.5172 24.4484 25.547L23.4164 25.6602C23.0915 25.6962 22.78 25.8098 22.5084 25.9917C22.2367 26.1735 22.0129 26.418 21.8557 26.7047L21.3574 27.6125C21.2225 27.8612 21.0064 28.0561 20.745 28.1645C20.4837 28.2728 20.193 28.2881 19.9218 28.2078L18.9274 27.9177C18.6138 27.8263 18.2828 27.8117 17.9624 27.8752C17.6419 27.9388 17.3415 28.0785 17.0865 28.2826L16.2756 28.9322C16.056 29.1099 15.782 29.2069 15.4995 29.2069C15.2171 29.2069 14.9431 29.1099 14.7235 28.9322L13.9126 28.2826C13.6575 28.0785 13.3571 27.9388 13.0366 27.8753C12.7162 27.8117 12.3852 27.8262 12.0715 27.9174L11.0776 28.2076C10.8062 28.2878 10.5156 28.2725 10.2543 28.1641C9.99289 28.0558 9.77666 27.861 9.6417 27.6123L9.14337 26.7042C8.98625 26.4175 8.76235 26.173 8.49064 25.9912C8.21893 25.8094 7.90741 25.6958 7.58247 25.66L6.5507 25.5467C6.26975 25.517 6.0075 25.3918 5.80773 25.192C5.60796 24.9922 5.48276 24.73 5.45302 24.449L5.33976 23.417C5.30381 23.0921 5.19013 22.7807 5.00832 22.509C4.82652 22.2374 4.58195 22.0135 4.29531 21.8564L3.38744 21.358C3.1406 21.2212 2.94739 21.0048 2.83933 20.7441C2.73126 20.4833 2.71472 20.1937 2.7924 19.9224L3.08256 18.928C3.17387 18.6144 3.18838 18.2834 3.12486 17.963C3.06135 17.6426 2.92168 17.3422 2.71765 17.0871L2.06755 16.2762C1.88992 16.0565 1.79301 15.7826 1.79301 15.5001C1.79301 15.2177 1.88992 14.9437 2.06755 14.7241L2.71719 13.9132C2.92122 13.6581 3.0609 13.3576 3.12445 13.0372C3.188 12.7167 3.17355 12.3857 3.08233 12.0721L2.7924 11.0779C2.7119 10.8066 2.72712 10.5158 2.8355 10.2544C2.94388 9.993 3.13883 9.77678 3.38767 9.64201L4.29576 9.14368C4.58244 8.98656 4.82702 8.76266 5.00879 8.49095C5.19057 8.21923 5.30417 7.90771 5.33999 7.58277L5.45324 6.55099C5.48319 6.26992 5.60869 6.00765 5.80877 5.80798C6.00885 5.60831 6.27138 5.48336 6.55251 5.45398L7.5845 5.34073C7.9094 5.30478 8.22086 5.19109 8.49252 5.00929C8.76418 4.82748 8.98805 4.58291 9.14518 4.29627L9.64351 3.3884C9.78028 3.14187 9.9964 2.94885 10.2567 2.84069C10.5171 2.73254 10.8064 2.71561 11.0776 2.79267L12.072 3.08283C12.3856 3.17418 12.7165 3.18871 13.037 3.12519C13.3574 3.06168 13.6578 2.92199 13.9128 2.71792L14.7237 2.06782C14.9434 1.89014 15.2173 1.79321 15.4998 1.79321C15.7823 1.79321 16.0562 1.89014 16.2758 2.06782L17.0867 2.71746C17.3419 2.92137 17.6423 3.06098 17.9628 3.12452C18.2832 3.18807 18.6141 3.17369 18.9278 3.0826L19.922 2.79267C20.1933 2.71248 20.4839 2.72784 20.7453 2.83619C21.0066 2.94454 21.2229 3.13931 21.3579 3.38795L21.8562 4.29604C22.0133 4.58272 22.2372 4.82731 22.5089 5.00908C22.7806 5.19085 23.0921 5.30446 23.4171 5.34027L24.4489 5.45353C24.7298 5.48327 24.992 5.60848 25.1918 5.80825C25.3916 6.00802 25.5168 6.27027 25.5465 6.55122L25.6598 7.58322C25.6957 7.90812 25.8094 8.21958 25.9912 8.49125C26.173 8.76291 26.4176 8.98678 26.7042 9.14391L27.6121 9.64224C27.859 9.77905 28.0522 9.99546 28.1603 10.2562C28.2684 10.5169 28.285 10.8065 28.2074 11.0779L27.9172 12.0723C27.8259 12.3859 27.8114 12.7169 27.8749 13.0373C27.9384 13.3577 28.0781 13.6581 28.2821 13.9132L28.9318 14.7241C29.1094 14.9437 29.2063 15.2177 29.2063 15.5001C29.2063 15.7826 29.1094 16.0565 28.9318 16.2762L28.2817 17.0871Z" stroke="#7115F2"/>
</svg>
