<svg width="30" height="29" viewBox="0 0 30 29" fill="none" xmlns="http://www.w3.org/2000/svg">
<path d="M6.30877 19.4351L3.5614 25.4386L9.56491 22.793L10.2772 24.4211L0 29L4.57895 18.6211L6.30877 19.4351ZM12.2105 9.25965L2.84912 12.6175L16.3825 26.1509L19.7403 16.7895L18.0105 16.1789L15.6702 22.793L11.6 18.7228L15.9754 14.1439L14.6526 12.9228L10.2772 17.5018L6.10526 13.3298L12.7193 10.9895L12.2105 9.25965ZM13.6351 7.73333L14.9579 9.05614L22.0807 1.93333H27.1684V7.02105L20.0456 14.1439L21.3684 15.4667L29.1018 7.73333V0H21.3684L13.6351 7.73333Z" fill="#7115F2"/>
</svg>
